<?xml version="1.0" encoding="UTF-8"?>
<svg xmlns="http://www.w3.org/2000/svg" xmlns:xlink="http://www.w3.org/1999/xlink" width="16pt" height="16pt" viewBox="0 0 16 16" version="1.1">
<g id="surface1">
<path style=" stroke:none;fill-rule:nonzero;fill:rgb(0%,0%,0%);fill-opacity:1;" d="M 12.039062 3.808594 L 5.460938 7.863281 C 5.085938 8.09375 4.910156 8.546875 5.03125 8.964844 L 5.742188 11.464844 C 5.804688 11.679688 5.992188 11.820312 6.210938 11.820312 C 6.222656 11.820312 6.234375 11.820312 6.246094 11.820312 C 6.480469 11.804688 6.664062 11.628906 6.695312 11.398438 L 6.882812 10.027344 C 6.90625 9.84375 6.996094 9.671875 7.132812 9.542969 L 12.5625 4.496094 C 12.726562 4.34375 12.746094 4.09375 12.613281 3.917969 C 12.476562 3.738281 12.230469 3.691406 12.039062 3.808594 Z M 6.699219 9.078125 C 6.453125 9.304688 6.292969 9.613281 6.25 9.941406 L 6.160156 10.605469 L 5.644531 8.792969 C 5.601562 8.644531 5.664062 8.484375 5.792969 8.40625 L 10.613281 5.4375 Z M 6.699219 9.078125 "/>
<path style=" stroke:none;fill-rule:nonzero;fill:rgb(0%,0%,0%);fill-opacity:1;" d="M 15.738281 1.167969 C 15.535156 0.992188 15.25 0.945312 15 1.042969 L 0.472656 6.648438 C 0.183594 6.757812 0 7.03125 0 7.335938 C 0 7.644531 0.1875 7.914062 0.480469 8.023438 L 3.871094 9.289062 L 5.195312 13.546875 C 5.269531 13.78125 5.453125 13.964844 5.6875 14.035156 C 5.921875 14.105469 6.175781 14.054688 6.363281 13.898438 L 8.335938 12.289062 C 8.429688 12.214844 8.566406 12.210938 8.664062 12.28125 L 12.222656 14.867188 C 12.351562 14.957031 12.503906 15.007812 12.65625 15.007812 C 12.746094 15.007812 12.835938 14.988281 12.921875 14.957031 C 13.15625 14.867188 13.328125 14.664062 13.378906 14.421875 L 15.984375 1.878906 C 16.039062 1.613281 15.945312 1.34375 15.738281 1.167969 Z M 15.359375 1.75 L 12.753906 14.289062 C 12.742188 14.335938 12.710938 14.355469 12.691406 14.363281 C 12.675781 14.371094 12.636719 14.378906 12.597656 14.351562 L 9.039062 11.765625 C 8.882812 11.648438 8.695312 11.59375 8.507812 11.59375 C 8.304688 11.59375 8.101562 11.660156 7.933594 11.796875 L 5.960938 13.40625 C 5.925781 13.433594 5.890625 13.429688 5.871094 13.421875 C 5.851562 13.417969 5.816406 13.402344 5.804688 13.359375 L 4.433594 8.953125 C 4.40625 8.859375 4.332031 8.78125 4.242188 8.746094 L 0.703125 7.425781 C 0.648438 7.40625 0.636719 7.367188 0.636719 7.335938 C 0.636719 7.304688 0.648438 7.261719 0.699219 7.242188 L 15.230469 1.636719 C 15.277344 1.621094 15.3125 1.640625 15.328125 1.65625 C 15.34375 1.667969 15.371094 1.699219 15.359375 1.75 Z M 15.359375 1.75 "/>
<path style=" stroke:none;fill-rule:nonzero;fill:rgb(0%,0%,0%);fill-opacity:1;" d="M 13.359375 7.878906 C 13.1875 7.84375 13.015625 7.953125 12.980469 8.125 L 12.929688 8.347656 C 12.894531 8.519531 13.003906 8.6875 13.175781 8.726562 C 13.199219 8.730469 13.21875 8.734375 13.242188 8.734375 C 13.390625 8.734375 13.523438 8.632812 13.554688 8.480469 L 13.601562 8.257812 C 13.640625 8.085938 13.53125 7.917969 13.359375 7.878906 Z M 13.359375 7.878906 "/>
<path style=" stroke:none;fill-rule:nonzero;fill:rgb(0%,0%,0%);fill-opacity:1;" d="M 13.039062 9.347656 C 12.867188 9.308594 12.699219 9.417969 12.660156 9.589844 L 11.929688 12.96875 C 11.890625 13.140625 12 13.308594 12.171875 13.347656 C 12.195312 13.351562 12.21875 13.355469 12.238281 13.355469 C 12.386719 13.355469 12.519531 13.253906 12.550781 13.101562 L 13.285156 9.726562 C 13.320312 9.554688 13.210938 9.386719 13.039062 9.347656 Z M 13.039062 9.347656 "/>
</g>
</svg>
